<mxfile modified="2020-10-30T13:03:34.060Z" host="app.diagrams.net" agent="5.0 (Windows NT 10.0; Win64; x64) AppleWebKit/537.36 (KHTML, like Gecko) Chrome/85.0.4183.83 Safari/537.36" etag="hgbCfc7irgtSjWwKr96h" version="13.8.7" type="github">
  <diagram id="u35l85IKDCg5NpIjXBWN" name="Page-1">
    <mxGraphModel dx="868" dy="488" grid="1" gridSize="10" guides="1" tooltips="1" connect="1" arrows="1" fold="0" page="1" pageScale="1" pageWidth="827" pageHeight="1169" math="0" shadow="0">
      <root>
        <mxCell id="IHWm6leCq4J6w1Vsg2oF-0" />
        <mxCell id="IHWm6leCq4J6w1Vsg2oF-1" parent="IHWm6leCq4J6w1Vsg2oF-0" />
        <mxCell id="qxN8eJHMfEaMiCHZe00V-7" value="" style="rounded=0;whiteSpace=wrap;html=1;shadow=0;fillColor=#85BCA8;direction=south;sketch=0;glass=0;" vertex="1" parent="IHWm6leCq4J6w1Vsg2oF-1">
          <mxGeometry x="80" y="440" width="160" height="350" as="geometry" />
        </mxCell>
      </root>
    </mxGraphModel>
  </diagram>
</mxfile>
